<?xml version="1.0" encoding="UTF-8"?>
<svg version="1.1" xmlns="http://www.w3.org/2000/svg" width="512" height="512">
<path d="M0 0 C1.01790619 0.00215515 2.03581238 0.0043103 3.08456421 0.00653076 C17.69363523 0.05620146 32.02575853 0.30709809 46.375 3.3125 C47.34985352 3.51117676 48.32470703 3.70985352 49.32910156 3.91455078 C97.7109774 14.03517194 141.69928269 35.9516877 177.375 70.3125 C178.3640332 71.26068604 178.3640332 71.26068604 179.37304688 72.22802734 C188.86130305 81.37247479 197.6012044 90.66984009 205.375 101.3125 C206.23306152 102.46355017 207.09113451 103.61459177 207.94921875 104.765625 C213.98736829 112.95680614 219.34595521 121.47054105 224.375 130.3125 C224.73948242 130.94430176 225.10396484 131.57610352 225.47949219 132.22705078 C247.08534998 169.97532572 256.85198095 212.74189997 256.6875 255.9375 C256.68534485 256.95540619 256.6831897 257.97331238 256.68096924 259.02206421 C256.63129854 273.63113523 256.38040191 287.96325853 253.375 302.3125 C253.07698486 303.77478027 253.07698486 303.77478027 252.77294922 305.26660156 C242.65232806 353.6484774 220.7358123 397.63678269 186.375 433.3125 C185.74287598 433.97185547 185.11075195 434.63121094 184.45947266 435.31054688 C175.31502521 444.79880305 166.01765991 453.5387044 155.375 461.3125 C154.22394983 462.17056152 153.07290823 463.02863451 151.921875 463.88671875 C143.73224019 469.92427396 135.22961724 475.30707302 126.375 480.3125 C125.66778809 480.7146875 124.96057617 481.116875 124.23193359 481.53125 C101.09654164 494.5566741 75.92537591 503.30551461 49.9375 508.625 C49.21860596 508.77235596 48.49971191 508.91971191 47.7590332 509.0715332 C33.08339502 511.86090125 18.55831162 512.66142619 3.64770508 512.62817383 C0.70811513 512.6250221 -2.2304558 512.64854926 -5.16992188 512.67382812 C-18.54306192 512.71848737 -31.43916711 511.51301542 -44.625 509.3125 C-46.33055054 509.03031616 -46.33055054 509.03031616 -48.07055664 508.74243164 C-91.33802759 500.97044532 -132.38793216 480.98345309 -165.625 452.3125 C-166.37007813 451.67828125 -167.11515625 451.0440625 -167.8828125 450.390625 C-181.38779833 438.57948485 -194.05918743 425.82889772 -204.625 411.3125 C-205.48149066 410.16255169 -206.33826433 409.01281411 -207.1953125 407.86328125 C-213.23534209 399.67315742 -218.61867614 391.16870382 -223.625 382.3125 C-224.0271875 381.60528809 -224.429375 380.89807617 -224.84375 380.16943359 C-237.8691741 357.03404164 -246.61801461 331.86287591 -251.9375 305.875 C-252.08485596 305.15610596 -252.23221191 304.43721191 -252.3840332 303.6965332 C-255.35789088 288.05024391 -255.99800362 272.57681954 -255.9375 256.6875 C-255.93534485 255.66959381 -255.9331897 254.65168762 -255.93096924 253.60293579 C-255.88129854 238.99386477 -255.63040191 224.66174147 -252.625 210.3125 C-252.42632324 209.33764648 -252.22764648 208.36279297 -252.02294922 207.35839844 C-241.90232806 158.9765226 -219.9858123 114.98821731 -185.625 79.3125 C-184.99287598 78.65314453 -184.36075195 77.99378906 -183.70947266 77.31445312 C-174.56502521 67.82619695 -165.26765991 59.0862956 -154.625 51.3125 C-153.47394983 50.45443848 -152.32290823 49.59636549 -151.171875 48.73828125 C-142.98224019 42.70072604 -134.47961724 37.31792698 -125.625 32.3125 C-124.91778809 31.9103125 -124.21057617 31.508125 -123.48193359 31.09375 C-100.34654164 18.0683259 -75.17537591 9.31948539 -49.1875 4 C-48.46860596 3.85264404 -47.74971191 3.70528809 -47.0090332 3.5534668 C-31.36274391 0.57960912 -15.88931954 -0.06050362 0 0 Z " fill="#8D60F0" transform="translate(255.625,-0.3125)"/>
<path d="M0 0 C1.62371673 -0.00935994 1.62371673 -0.00935994 3.28023583 -0.01890898 C6.90222075 -0.03484528 10.52353332 -0.02223152 14.14552307 -0.00964355 C16.74438367 -0.01506439 19.3432412 -0.02218682 21.9420929 -0.03088379 C28.26521823 -0.0486524 34.58815344 -0.04483633 40.91128617 -0.03323323 C46.0517036 -0.02419181 51.19206782 -0.02297796 56.33249092 -0.02732849 C57.06470344 -0.02794142 57.79691595 -0.02855436 58.55131673 -0.02918586 C60.03890515 -0.03046479 61.52649357 -0.03176165 63.01408196 -0.03307623 C76.9573169 -0.04447737 90.90044657 -0.03137608 104.84366424 -0.00987476 C116.79996809 0.00799208 128.75611656 0.00489467 140.7124176 -0.0135498 C154.60493036 -0.03497123 168.49735088 -0.04337484 182.38987786 -0.03110075 C183.87223405 -0.02982659 185.35459026 -0.02856911 186.83694649 -0.02732849 C187.5662451 -0.02671139 188.29554371 -0.02609429 189.04694228 -0.02545848 C194.17892523 -0.02200912 199.31084954 -0.02782508 204.44282341 -0.0372467 C211.3548033 -0.04965749 218.26648524 -0.04078095 225.17843628 -0.01766968 C227.71485469 -0.01238185 230.2512978 -0.01389757 232.78770638 -0.02272034 C236.25089366 -0.03365588 239.71314201 -0.01993453 243.17626953 0 C244.17929326 -0.00892289 245.18231699 -0.01784577 246.21573538 -0.02703905 C252.99632331 0.04862949 258.52627813 1.23156994 263.67467207 5.88436842 C269.20987287 12.01982966 269.44574626 18.43173319 269.41905212 26.24899292 C269.42358324 27.22444396 269.42811435 28.19989499 269.43278277 29.20490515 C269.44543387 32.47051402 269.44380593 35.73595626 269.44215393 39.00158691 C269.44813868 41.34414382 269.45494411 43.68669876 269.46250916 46.0292511 C269.48018061 52.39081086 269.48486499 58.75231682 269.48614073 65.11389875 C269.48780059 69.75519159 269.49359956 74.39647244 269.49981368 79.03776104 C269.51641776 91.5206049 269.52389884 104.00342026 269.52247421 116.48627476 C269.5223943 117.1946725 269.52231439 117.90307024 269.52223206 118.63293457 C269.52215029 119.34220001 269.52206853 120.05146545 269.52198429 120.78222378 C269.52117136 132.27721141 269.54031247 143.77206803 269.56850879 155.26701777 C269.59725145 167.0781453 269.61104836 178.88920895 269.60932124 190.70037234 C269.60865786 197.32818455 269.61451746 203.95587595 269.63567734 210.58366013 C269.65503418 216.81682956 269.65520138 223.04970877 269.64064407 229.28288841 C269.63855181 231.56936886 269.64328165 233.85586735 269.65536499 236.14231682 C269.67080357 239.26618887 269.66151778 242.38905844 269.64610291 245.51290894 C269.65639003 246.41545013 269.66667716 247.31799132 269.67727602 248.24788225 C269.60286837 255.08190872 268.00914759 260.61750545 263.11647034 265.56652832 C262.4474469 266.02156738 261.77842346 266.47660645 261.08912659 266.94543457 C260.41752502 267.41852051 259.74592346 267.89160645 259.05397034 268.37902832 C255.88908987 270.25716067 253.29259998 270.63371394 249.69466782 270.63936234 C248.77687853 270.64320348 247.85908924 270.64704463 246.91348815 270.65100217 C245.90368211 270.65013569 244.89387607 270.6492692 243.85346985 270.64837646 C242.24607197 270.65283315 242.24607197 270.65283315 240.60620141 270.65737987 C236.9973119 270.66608642 233.38845548 270.66757677 229.77955627 270.66906738 C227.19937061 270.67369417 224.61918564 270.67871864 222.03900146 270.68411255 C215.01620754 270.6976985 207.99341932 270.70372109 200.97061443 270.70812321 C196.58564063 270.71088538 192.20066903 270.71512271 187.81569672 270.71962738 C175.67549656 270.73182075 163.53529816 270.7421197 151.39509201 270.74550247 C150.22941882 270.74583182 150.22941882 270.74583182 149.04019667 270.74616782 C148.26121787 270.7463861 147.48223906 270.74660438 146.67965484 270.74682927 C145.10113891 270.74727274 143.52262298 270.7477193 141.94410706 270.74816895 C141.16110805 270.74839038 140.37810904 270.7486118 139.57138279 270.74883994 C126.88571775 270.75278744 114.20011017 270.77023966 101.51446733 270.79352847 C88.49094334 270.8172446 75.46744818 270.82970445 62.44390225 270.83087039 C55.13142598 270.83178704 47.81902456 270.83753682 40.50656891 270.85569 C33.62836275 270.87270491 26.75030088 270.87434163 19.87207985 270.86555099 C17.34652387 270.86477891 14.82096035 270.8691458 12.29542351 270.87900925 C8.84935126 270.89167922 5.40378637 270.88587839 1.9577179 270.87542725 C0.95683474 270.88348365 -0.04404841 270.89154006 -1.07526135 270.89984059 C-8.07836518 270.85012248 -12.46320724 269.47605444 -18.53587341 265.94543457 C-24.44920228 259.71246631 -25.4388413 251.60986607 -25.34957886 243.35505676 C-25.35511325 242.38364957 -25.36064765 241.41224237 -25.36634976 240.41139859 C-25.37987302 237.18330068 -25.36503226 233.95598714 -25.3500824 230.72790527 C-25.35386851 228.40283888 -25.35937096 226.07777475 -25.36645508 223.75271606 C-25.38038627 217.45748803 -25.3692571 211.162534 -25.35274386 204.86732125 C-25.34027741 198.94248513 -25.3445075 193.01767653 -25.34787358 187.09283175 C-25.35374236 175.35542165 -25.33961738 163.61811908 -25.31492615 151.8807373 C-25.29099178 140.50179009 -25.28392952 129.12298642 -25.29441833 117.74401855 C-25.3058351 105.33621037 -25.30774952 92.92846845 -25.29332024 80.52066106 C-25.28578261 73.95836461 -25.2818807 67.39612547 -25.28782463 60.83382607 C-25.29259711 54.66710413 -25.28248119 48.5005808 -25.26086998 42.33389664 C-25.25530642 40.07119224 -25.25483284 37.80846875 -25.25982285 35.54576302 C-25.26578053 32.45690889 -25.25326085 29.36866098 -25.23605347 26.27986145 C-25.24206351 25.38491779 -25.24807356 24.48997413 -25.25426573 23.56791097 C-25.17724806 15.96341158 -23.29448469 10.10532671 -17.84837341 4.50793457 C-11.88296858 0.2536941 -7.2117291 -0.06401309 0 0 Z " fill="#7D6FEE" transform="translate(133.84837341308594,120.4920654296875)"/>
<path d="M0 0 C1.62371673 -0.00935994 1.62371673 -0.00935994 3.28023583 -0.01890898 C6.90222075 -0.03484528 10.52353332 -0.02223152 14.14552307 -0.00964355 C16.74438367 -0.01506439 19.3432412 -0.02218682 21.9420929 -0.03088379 C28.26521823 -0.0486524 34.58815344 -0.04483633 40.91128617 -0.03323323 C46.0517036 -0.02419181 51.19206782 -0.02297796 56.33249092 -0.02732849 C57.06470344 -0.02794142 57.79691595 -0.02855436 58.55131673 -0.02918586 C60.03890515 -0.03046479 61.52649357 -0.03176165 63.01408196 -0.03307623 C76.9573169 -0.04447737 90.90044657 -0.03137608 104.84366424 -0.00987476 C116.79996809 0.00799208 128.75611656 0.00489467 140.7124176 -0.0135498 C154.60493036 -0.03497123 168.49735088 -0.04337484 182.38987786 -0.03110075 C183.87223405 -0.02982659 185.35459026 -0.02856911 186.83694649 -0.02732849 C187.5662451 -0.02671139 188.29554371 -0.02609429 189.04694228 -0.02545848 C194.17892523 -0.02200912 199.31084954 -0.02782508 204.44282341 -0.0372467 C211.3548033 -0.04965749 218.26648524 -0.04078095 225.17843628 -0.01766968 C227.71485469 -0.01238185 230.2512978 -0.01389757 232.78770638 -0.02272034 C236.25089366 -0.03365588 239.71314201 -0.01993453 243.17626953 0 C244.17929326 -0.00892289 245.18231699 -0.01784577 246.21573538 -0.02703905 C252.99632331 0.04862949 258.52627813 1.23156994 263.67467207 5.88436842 C269.20987287 12.01982966 269.44574626 18.43173319 269.41905212 26.24899292 C269.42358324 27.22444396 269.42811435 28.19989499 269.43278277 29.20490515 C269.44543387 32.47051402 269.44380593 35.73595626 269.44215393 39.00158691 C269.44813868 41.34414382 269.45494411 43.68669876 269.46250916 46.0292511 C269.48018061 52.39081086 269.48486499 58.75231682 269.48614073 65.11389875 C269.48780059 69.75519159 269.49359956 74.39647244 269.49981368 79.03776104 C269.51641776 91.5206049 269.52389884 104.00342026 269.52247421 116.48627476 C269.5223943 117.1946725 269.52231439 117.90307024 269.52223206 118.63293457 C269.52215029 119.34220001 269.52206853 120.05146545 269.52198429 120.78222378 C269.52117136 132.27721141 269.54031247 143.77206803 269.56850879 155.26701777 C269.59725145 167.0781453 269.61104836 178.88920895 269.60932124 190.70037234 C269.60865786 197.32818455 269.61451746 203.95587595 269.63567734 210.58366013 C269.65503418 216.81682956 269.65520138 223.04970877 269.64064407 229.28288841 C269.63855181 231.56936886 269.64328165 233.85586735 269.65536499 236.14231682 C269.67080357 239.26618887 269.66151778 242.38905844 269.64610291 245.51290894 C269.65639003 246.41545013 269.66667716 247.31799132 269.67727602 248.24788225 C269.60286837 255.08190872 268.00914759 260.61750545 263.11647034 265.56652832 C262.4474469 266.02156738 261.77842346 266.47660645 261.08912659 266.94543457 C260.41752502 267.41852051 259.74592346 267.89160645 259.05397034 268.37902832 C255.88908987 270.25716067 253.29259998 270.63371394 249.69466782 270.63936234 C248.77687853 270.64320348 247.85908924 270.64704463 246.91348815 270.65100217 C245.90368211 270.65013569 244.89387607 270.6492692 243.85346985 270.64837646 C242.24607197 270.65283315 242.24607197 270.65283315 240.60620141 270.65737987 C236.9973119 270.66608642 233.38845548 270.66757677 229.77955627 270.66906738 C227.19937061 270.67369417 224.61918564 270.67871864 222.03900146 270.68411255 C215.01620754 270.6976985 207.99341932 270.70372109 200.97061443 270.70812321 C196.58564063 270.71088538 192.20066903 270.71512271 187.81569672 270.71962738 C175.67549656 270.73182075 163.53529816 270.7421197 151.39509201 270.74550247 C150.22941882 270.74583182 150.22941882 270.74583182 149.04019667 270.74616782 C148.26121787 270.7463861 147.48223906 270.74660438 146.67965484 270.74682927 C145.10113891 270.74727274 143.52262298 270.7477193 141.94410706 270.74816895 C141.16110805 270.74839038 140.37810904 270.7486118 139.57138279 270.74883994 C126.88571775 270.75278744 114.20011017 270.77023966 101.51446733 270.79352847 C88.49094334 270.8172446 75.46744818 270.82970445 62.44390225 270.83087039 C55.13142598 270.83178704 47.81902456 270.83753682 40.50656891 270.85569 C33.62836275 270.87270491 26.75030088 270.87434163 19.87207985 270.86555099 C17.34652387 270.86477891 14.82096035 270.8691458 12.29542351 270.87900925 C8.84935126 270.89167922 5.40378637 270.88587839 1.9577179 270.87542725 C0.95683474 270.88348365 -0.04404841 270.89154006 -1.07526135 270.89984059 C-8.07836518 270.85012248 -12.46320724 269.47605444 -18.53587341 265.94543457 C-24.44920228 259.71246631 -25.4388413 251.60986607 -25.34957886 243.35505676 C-25.35511325 242.38364957 -25.36064765 241.41224237 -25.36634976 240.41139859 C-25.37987302 237.18330068 -25.36503226 233.95598714 -25.3500824 230.72790527 C-25.35386851 228.40283888 -25.35937096 226.07777475 -25.36645508 223.75271606 C-25.38038627 217.45748803 -25.3692571 211.162534 -25.35274386 204.86732125 C-25.34027741 198.94248513 -25.3445075 193.01767653 -25.34787358 187.09283175 C-25.35374236 175.35542165 -25.33961738 163.61811908 -25.31492615 151.8807373 C-25.29099178 140.50179009 -25.28392952 129.12298642 -25.29441833 117.74401855 C-25.3058351 105.33621037 -25.30774952 92.92846845 -25.29332024 80.52066106 C-25.28578261 73.95836461 -25.2818807 67.39612547 -25.28782463 60.83382607 C-25.29259711 54.66710413 -25.28248119 48.5005808 -25.26086998 42.33389664 C-25.25530642 40.07119224 -25.25483284 37.80846875 -25.25982285 35.54576302 C-25.26578053 32.45690889 -25.25326085 29.36866098 -25.23605347 26.27986145 C-25.24206351 25.38491779 -25.24807356 24.48997413 -25.25426573 23.56791097 C-25.17724806 15.96341158 -23.29448469 10.10532671 -17.84837341 4.50793457 C-11.88296858 0.2536941 -7.2117291 -0.06401309 0 0 Z M-17.84837341 61.50793457 C-17.91024841 93.24980957 -17.97212341 124.99168457 -18.03587341 157.69543457 C-18.06318542 167.72587158 -18.09049744 177.75630859 -18.11863708 188.09069824 C-18.12866907 197.06528318 -18.12866907 197.06528318 -18.13470459 206.03987122 C-18.13750472 210.04386866 -18.14876765 214.04774733 -18.1651001 218.05171204 C-18.18564588 223.15604557 -18.19185274 228.26020588 -18.18759024 233.36457694 C-18.18848182 235.23972785 -18.19444936 237.11488469 -18.20601881 238.99000013 C-18.22090666 241.52009892 -18.21735648 244.04952181 -18.20913696 246.57963562 C-18.21787496 247.31581273 -18.22661295 248.05198984 -18.23561573 248.81047535 C-18.1843767 254.66531616 -16.62330711 257.51141128 -12.82038116 261.78910923 C-8.3787047 264.35789999 -4.34294355 264.05735585 0.70375061 264.00914001 C2.31582846 264.01744161 2.31582846 264.01744161 3.96047354 264.02591091 C7.56804499 264.03954329 11.17492773 264.02453345 14.78248596 264.00964355 C17.36621393 264.01342577 19.94993988 264.018925 22.53366089 264.02601624 C28.8266519 264.03995108 35.11944228 264.03239083 41.41242373 264.01734065 C48.74033581 264.00048231 56.06819788 264.00369059 63.39612335 264.00743473 C76.47075222 264.01331376 89.5452848 263.99914012 102.61988831 263.9744873 C115.30775055 263.95056639 127.99548413 263.94348298 140.68336487 263.95397949 C154.49855285 263.96538813 168.31368132 263.96731944 182.12886858 263.9528814 C183.60193411 263.95135555 185.07499964 263.9498352 186.54806519 263.94832039 C187.27284769 263.94756257 187.99763019 263.94680476 188.7443758 263.94602398 C193.85268449 263.94128073 198.96096661 263.94313288 204.0692749 263.94738579 C210.94424653 263.95282616 217.81903659 263.94207334 224.69397545 263.92043114 C227.22036321 263.91485665 229.74676811 263.91440399 232.27315712 263.919384 C235.71547181 263.92531954 239.15723742 263.91286421 242.59950256 263.89561462 C243.60484716 263.90162467 244.61019176 263.90763471 245.64600134 263.91382688 C251.75440465 263.85797174 255.18037323 263.05472316 259.90162659 259.00793457 C262.8585593 255.45961531 262.28896032 251.17108133 262.2718811 246.82014465 C262.27273712 246.03136429 262.27359314 245.24258392 262.2744751 244.42990112 C262.27613446 241.77009851 262.27059988 239.11035841 262.26515198 236.45056152 C262.26484575 234.5178207 262.26497895 232.58507976 262.26551723 230.65233898 C262.26574342 225.46661892 262.25993864 220.28092184 262.2529068 215.09520721 C262.24722082 210.23290432 262.24694417 205.37060707 262.24623108 200.50830078 C262.24097932 186.27900899 262.22701822 172.04972149 262.21412659 157.82043457 C262.19350159 126.03730957 262.17287659 94.25418457 262.15162659 61.50793457 C169.75162659 61.50793457 77.35162659 61.50793457 -17.84837341 61.50793457 Z " fill="#B93CF6" transform="translate(133.84837341308594,120.4920654296875)"/>
<path d="M0 0 C0.81730591 -0.00623996 1.63461182 -0.01247993 2.47668457 -0.01890898 C5.21912364 -0.03488145 7.96067912 -0.02221833 10.703125 -0.00964355 C12.66764851 -0.01506279 14.63216796 -0.02218433 16.59667969 -0.03088379 C21.93548516 -0.04914366 27.27398199 -0.04203856 32.61279297 -0.02936745 C38.19499556 -0.01925361 43.77717139 -0.02862863 49.359375 -0.03491211 C58.73442336 -0.04219322 68.10934576 -0.03258861 77.484375 -0.0135498 C88.32944839 0.00821976 99.17422101 0.00116873 110.01928711 -0.02085543 C119.32383808 -0.03899618 128.6282984 -0.04157422 137.93286133 -0.03110075 C143.49305147 -0.02485855 149.05310015 -0.02405019 154.61328125 -0.0372467 C159.84019072 -0.04878526 165.06671169 -0.04081586 170.2935791 -0.01766968 C172.21406407 -0.01237193 174.13458162 -0.01391451 176.05505371 -0.02272034 C178.67256338 -0.03361744 181.2888206 -0.01998354 183.90625 0 C184.67005981 -0.00892289 185.43386963 -0.01784577 186.2208252 -0.02703905 C189.66713205 0.02415661 191.61301706 0.25795269 194.42430878 2.32427311 C196.62716035 5.47068273 196.51256466 8.4304442 196.47070312 12.13464355 C196.4777124 12.89772827 196.48472168 13.66081299 196.49194336 14.44702148 C196.5095305 16.96639535 196.49789762 19.48464327 196.484375 22.00402832 C196.48707 23.75753495 196.4909525 25.51104011 196.49597168 27.26454163 C196.50186791 30.93899773 196.49330097 34.61306474 196.47460938 38.28747559 C196.45183636 42.99315389 196.46493131 47.69791881 196.48889923 52.4035635 C196.50336831 56.02475336 196.49874588 59.64572747 196.48838806 63.2669239 C196.48572296 65.00163952 196.48898293 66.73637482 196.49830627 68.47106743 C196.50848857 70.89851451 196.49294824 73.32449309 196.47070312 75.75183105 C196.47880005 76.46627884 196.48689697 77.18072662 196.49523926 77.91682434 C196.43988813 81.1841716 196.04911788 83.33940368 194.42430878 86.1920166 C191.08001053 89.32619079 188.26391623 89.20364852 183.90625 89.13612366 C183.08894409 89.14321804 182.27163818 89.15031243 181.42956543 89.1576218 C178.68694231 89.17524438 175.94572843 89.15707593 173.203125 89.13903809 C171.23860019 89.14417529 169.27407999 89.15145505 167.30957031 89.16072083 C161.97069301 89.17926836 156.63231374 89.16627498 151.29345703 89.14663053 C145.71125691 89.13027045 140.12908898 89.13905324 134.546875 89.14414978 C125.17179387 89.14867369 115.79691206 89.1327824 106.421875 89.1048584 C95.57679296 89.07280524 84.73207047 89.07282132 73.88696289 89.09007317 C63.46235639 89.10592656 53.03788196 89.09921232 42.61328125 89.08213615 C38.17314141 89.07525626 33.73310713 89.07630774 29.29296875 89.08368111 C24.06604277 89.0913316 18.8395269 89.07925809 13.6126709 89.0518322 C11.69219175 89.04493432 9.7716744 89.04486536 7.85119629 89.05204773 C5.23367026 89.06071033 2.61741919 89.0448413 0 89.02259827 C-0.76380981 89.03083903 -1.52761963 89.0390798 -2.3145752 89.04757029 C-5.75834439 88.99338778 -7.70773667 88.75687815 -10.51805878 86.69396877 C-12.7374193 83.52053437 -12.60602348 80.50806646 -12.56445312 76.77355957 C-12.5714624 75.99911499 -12.57847168 75.22467041 -12.58569336 74.42675781 C-12.60327999 71.87011725 -12.59164889 69.31458613 -12.578125 66.75793457 C-12.58081974 64.9796121 -12.58470201 63.20129106 -12.58972168 61.42297363 C-12.59561761 57.69724489 -12.58705087 53.97189993 -12.56835938 50.24621582 C-12.54556959 45.4709417 -12.55869219 40.69656681 -12.58264923 35.92132568 C-12.59710475 32.24956489 -12.59250239 28.57801722 -12.58213806 24.90625 C-12.57947008 23.14558811 -12.58274304 21.38490686 -12.59205627 19.62426758 C-12.60221808 17.1630937 -12.58672753 14.70337507 -12.56445312 12.24230957 C-12.57255005 11.51491577 -12.58064697 10.78752197 -12.58898926 10.03808594 C-12.53675355 6.92203924 -12.3230678 4.90293499 -10.51805878 2.3214798 C-7.10837772 -0.18080711 -4.06967447 -0.04754226 0 0 Z " fill="#8D62F0" transform="translate(164.046875,214.4920654296875)"/>
<path d="M0 0 C1.62371673 -0.00935994 1.62371673 -0.00935994 3.28023583 -0.01890898 C6.90222075 -0.03484528 10.52353332 -0.02223152 14.14552307 -0.00964355 C16.74438367 -0.01506439 19.3432412 -0.02218682 21.9420929 -0.03088379 C28.26521823 -0.0486524 34.58815344 -0.04483633 40.91128617 -0.03323323 C46.0517036 -0.02419181 51.19206782 -0.02297796 56.33249092 -0.02732849 C57.06470344 -0.02794142 57.79691595 -0.02855436 58.55131673 -0.02918586 C60.03890515 -0.03046479 61.52649357 -0.03176165 63.01408196 -0.03307623 C76.9573169 -0.04447737 90.90044657 -0.03137608 104.84366424 -0.00987476 C116.79996809 0.00799208 128.75611656 0.00489467 140.7124176 -0.0135498 C154.60493036 -0.03497123 168.49735088 -0.04337484 182.38987786 -0.03110075 C183.87223405 -0.02982659 185.35459026 -0.02856911 186.83694649 -0.02732849 C187.5662451 -0.02671139 188.29554371 -0.02609429 189.04694228 -0.02545848 C194.17892523 -0.02200912 199.31084954 -0.02782508 204.44282341 -0.0372467 C211.3548033 -0.04965749 218.26648524 -0.04078095 225.17843628 -0.01766968 C227.71485469 -0.01238185 230.2512978 -0.01389757 232.78770638 -0.02272034 C236.25089366 -0.03365588 239.71314201 -0.01993453 243.17626953 0 C244.17929326 -0.00892289 245.18231699 -0.01784577 246.21573538 -0.02703905 C252.99632331 0.04862949 258.52627813 1.23156994 263.67467207 5.88436842 C269.20987287 12.01982966 269.44574626 18.43173319 269.41905212 26.24899292 C269.42358324 27.22444396 269.42811435 28.19989499 269.43278277 29.20490515 C269.44543387 32.47051402 269.44380593 35.73595626 269.44215393 39.00158691 C269.44813868 41.34414382 269.45494411 43.68669876 269.46250916 46.0292511 C269.48018061 52.39081086 269.48486499 58.75231682 269.48614073 65.11389875 C269.48780059 69.75519159 269.49359956 74.39647244 269.49981368 79.03776104 C269.51641776 91.5206049 269.52389884 104.00342026 269.52247421 116.48627476 C269.5223943 117.1946725 269.52231439 117.90307024 269.52223206 118.63293457 C269.52215029 119.34220001 269.52206853 120.05146545 269.52198429 120.78222378 C269.52117136 132.27721141 269.54031247 143.77206803 269.56850879 155.26701777 C269.59725145 167.0781453 269.61104836 178.88920895 269.60932124 190.70037234 C269.60865786 197.32818455 269.61451746 203.95587595 269.63567734 210.58366013 C269.65503418 216.81682956 269.65520138 223.04970877 269.64064407 229.28288841 C269.63855181 231.56936886 269.64328165 233.85586735 269.65536499 236.14231682 C269.67080357 239.26618887 269.66151778 242.38905844 269.64610291 245.51290894 C269.65639003 246.41545013 269.66667716 247.31799132 269.67727602 248.24788225 C269.60286837 255.08190872 268.00914759 260.61750545 263.11647034 265.56652832 C262.4474469 266.02156738 261.77842346 266.47660645 261.08912659 266.94543457 C260.41752502 267.41852051 259.74592346 267.89160645 259.05397034 268.37902832 C255.88908987 270.25716067 253.29259998 270.63371394 249.69466782 270.63936234 C248.77687853 270.64320348 247.85908924 270.64704463 246.91348815 270.65100217 C245.90368211 270.65013569 244.89387607 270.6492692 243.85346985 270.64837646 C242.24607197 270.65283315 242.24607197 270.65283315 240.60620141 270.65737987 C236.9973119 270.66608642 233.38845548 270.66757677 229.77955627 270.66906738 C227.19937061 270.67369417 224.61918564 270.67871864 222.03900146 270.68411255 C215.01620754 270.6976985 207.99341932 270.70372109 200.97061443 270.70812321 C196.58564063 270.71088538 192.20066903 270.71512271 187.81569672 270.71962738 C175.67549656 270.73182075 163.53529816 270.7421197 151.39509201 270.74550247 C150.22941882 270.74583182 150.22941882 270.74583182 149.04019667 270.74616782 C148.26121787 270.7463861 147.48223906 270.74660438 146.67965484 270.74682927 C145.10113891 270.74727274 143.52262298 270.7477193 141.94410706 270.74816895 C141.16110805 270.74839038 140.37810904 270.7486118 139.57138279 270.74883994 C126.88571775 270.75278744 114.20011017 270.77023966 101.51446733 270.79352847 C88.49094334 270.8172446 75.46744818 270.82970445 62.44390225 270.83087039 C55.13142598 270.83178704 47.81902456 270.83753682 40.50656891 270.85569 C33.62836275 270.87270491 26.75030088 270.87434163 19.87207985 270.86555099 C17.34652387 270.86477891 14.82096035 270.8691458 12.29542351 270.87900925 C8.84935126 270.89167922 5.40378637 270.88587839 1.9577179 270.87542725 C0.95683474 270.88348365 -0.04404841 270.89154006 -1.07526135 270.89984059 C-8.07836518 270.85012248 -12.46320724 269.47605444 -18.53587341 265.94543457 C-24.44920228 259.71246631 -25.4388413 251.60986607 -25.34957886 243.35505676 C-25.35511325 242.38364957 -25.36064765 241.41224237 -25.36634976 240.41139859 C-25.37987302 237.18330068 -25.36503226 233.95598714 -25.3500824 230.72790527 C-25.35386851 228.40283888 -25.35937096 226.07777475 -25.36645508 223.75271606 C-25.38038627 217.45748803 -25.3692571 211.162534 -25.35274386 204.86732125 C-25.34027741 198.94248513 -25.3445075 193.01767653 -25.34787358 187.09283175 C-25.35374236 175.35542165 -25.33961738 163.61811908 -25.31492615 151.8807373 C-25.29099178 140.50179009 -25.28392952 129.12298642 -25.29441833 117.74401855 C-25.3058351 105.33621037 -25.30774952 92.92846845 -25.29332024 80.52066106 C-25.28578261 73.95836461 -25.2818807 67.39612547 -25.28782463 60.83382607 C-25.29259711 54.66710413 -25.28248119 48.5005808 -25.26086998 42.33389664 C-25.25530642 40.07119224 -25.25483284 37.80846875 -25.25982285 35.54576302 C-25.26578053 32.45690889 -25.25326085 29.36866098 -25.23605347 26.27986145 C-25.24206351 25.38491779 -25.24807356 24.48997413 -25.25426573 23.56791097 C-25.17724806 15.96341158 -23.29448469 10.10532671 -17.84837341 4.50793457 C-11.88296858 0.2536941 -7.2117291 -0.06401309 0 0 Z M-15.84837341 11.50793457 C-22.26536475 24.34191724 -17.84837341 40.15910574 -17.84837341 54.50793457 C74.55162659 54.50793457 166.95162659 54.50793457 262.15162659 54.50793457 C266.38177051 18.90651174 266.38177051 18.90651174 256.15162659 8.50793457 C253.3306444 7.56760718 251.61147426 7.38028574 248.6918745 7.37371349 C247.77346852 7.36925565 246.85506253 7.36479781 245.90882605 7.36020488 C244.89833789 7.36038924 243.88784974 7.3605736 242.84674072 7.36076355 C241.77443657 7.35708686 240.70213242 7.35341017 239.59733421 7.34962207 C235.98611374 7.33856462 232.37492202 7.33473792 228.76368713 7.33093262 C226.18187874 7.32466962 223.60007126 7.31802296 221.01826477 7.3110199 C213.25820847 7.29125966 205.49815087 7.28119048 197.7380757 7.27229211 C194.08430233 7.26790906 190.43053042 7.26254234 186.77675819 7.25730324 C174.63226847 7.24029247 162.48777965 7.22579756 150.34327984 7.2185545 C147.19191169 7.21664459 144.04054354 7.21472426 140.88917542 7.21276855 C140.1059141 7.21228481 139.32265278 7.21180107 138.51565627 7.21130268 C125.8228306 7.20299953 113.13009908 7.17765716 100.43731453 7.14518788 C87.4081457 7.11212955 74.37902475 7.09410691 61.34981376 7.09091026 C54.03342939 7.08874417 46.71718238 7.07998105 39.40083885 7.05444908 C32.52014391 7.03049286 25.63970016 7.02690867 18.75897217 7.03721046 C16.2313791 7.03770751 13.70377411 7.0313377 11.17621803 7.01765442 C7.7296669 7.00003757 4.28401415 7.00699216 0.83746338 7.02018738 C-0.66823061 7.00373351 -0.66823061 7.00373351 -2.20434266 6.98694724 C-7.89108452 7.03963109 -11.44269061 7.52830716 -15.84837341 11.50793457 Z M-17.84837341 61.50793457 C-17.91024841 93.24980957 -17.97212341 124.99168457 -18.03587341 157.69543457 C-18.06318542 167.72587158 -18.09049744 177.75630859 -18.11863708 188.09069824 C-18.12866907 197.06528318 -18.12866907 197.06528318 -18.13470459 206.03987122 C-18.13750472 210.04386866 -18.14876765 214.04774733 -18.1651001 218.05171204 C-18.18564588 223.15604557 -18.19185274 228.26020588 -18.18759024 233.36457694 C-18.18848182 235.23972785 -18.19444936 237.11488469 -18.20601881 238.99000013 C-18.22090666 241.52009892 -18.21735648 244.04952181 -18.20913696 246.57963562 C-18.21787496 247.31581273 -18.22661295 248.05198984 -18.23561573 248.81047535 C-18.1843767 254.66531616 -16.62330711 257.51141128 -12.82038116 261.78910923 C-8.3787047 264.35789999 -4.34294355 264.05735585 0.70375061 264.00914001 C2.31582846 264.01744161 2.31582846 264.01744161 3.96047354 264.02591091 C7.56804499 264.03954329 11.17492773 264.02453345 14.78248596 264.00964355 C17.36621393 264.01342577 19.94993988 264.018925 22.53366089 264.02601624 C28.8266519 264.03995108 35.11944228 264.03239083 41.41242373 264.01734065 C48.74033581 264.00048231 56.06819788 264.00369059 63.39612335 264.00743473 C76.47075222 264.01331376 89.5452848 263.99914012 102.61988831 263.9744873 C115.30775055 263.95056639 127.99548413 263.94348298 140.68336487 263.95397949 C154.49855285 263.96538813 168.31368132 263.96731944 182.12886858 263.9528814 C183.60193411 263.95135555 185.07499964 263.9498352 186.54806519 263.94832039 C187.27284769 263.94756257 187.99763019 263.94680476 188.7443758 263.94602398 C193.85268449 263.94128073 198.96096661 263.94313288 204.0692749 263.94738579 C210.94424653 263.95282616 217.81903659 263.94207334 224.69397545 263.92043114 C227.22036321 263.91485665 229.74676811 263.91440399 232.27315712 263.919384 C235.71547181 263.92531954 239.15723742 263.91286421 242.59950256 263.89561462 C243.60484716 263.90162467 244.61019176 263.90763471 245.64600134 263.91382688 C251.75440465 263.85797174 255.18037323 263.05472316 259.90162659 259.00793457 C262.8585593 255.45961531 262.28896032 251.17108133 262.2718811 246.82014465 C262.27273712 246.03136429 262.27359314 245.24258392 262.2744751 244.42990112 C262.27613446 241.77009851 262.27059988 239.11035841 262.26515198 236.45056152 C262.26484575 234.5178207 262.26497895 232.58507976 262.26551723 230.65233898 C262.26574342 225.46661892 262.25993864 220.28092184 262.2529068 215.09520721 C262.24722082 210.23290432 262.24694417 205.37060707 262.24623108 200.50830078 C262.24097932 186.27900899 262.22701822 172.04972149 262.21412659 157.82043457 C262.19350159 126.03730957 262.17287659 94.25418457 262.15162659 61.50793457 C169.75162659 61.50793457 77.35162659 61.50793457 -17.84837341 61.50793457 Z " fill="#F8F4FD" transform="translate(133.84837341308594,120.4920654296875)"/>
<path d="M0 0 C92.4 0 184.8 0 280 0 C280.0928125 47.6128125 280.0928125 47.6128125 280.1875 96.1875 C280.21481201 106.21793701 280.24212402 116.24837402 280.27026367 126.58276367 C280.28381348 138.81115723 280.28381348 138.81115723 280.28633118 144.53193665 C280.2891313 148.53593409 280.30039423 152.53981276 280.31672668 156.54377747 C280.33727247 161.648111 280.34347932 166.75227131 280.33921683 171.85664237 C280.34010841 173.73179328 280.34607594 175.60695012 280.35764539 177.48206556 C280.37253325 180.01216435 280.36898307 182.54158724 280.36076355 185.07170105 C280.37387054 186.17596672 280.37387054 186.17596672 280.38724232 187.30254078 C280.3401214 192.68682477 278.94608871 195.72956318 275.5 199.75 C272.72656047 202.06119961 269.99162117 202.1273306 266.54304123 202.1398077 C265.62525194 202.14549894 264.70746265 202.15119018 263.76186156 202.15705389 C262.2471525 202.1588237 262.2471525 202.1588237 260.70184326 202.16062927 C259.63024468 202.16571709 258.55864609 202.17080491 257.45457482 202.17604691 C253.84569443 202.19180628 250.23683412 202.20030562 246.62792969 202.20874023 C244.04774344 202.21827575 241.4675585 202.22816678 238.88737488 202.23838806 C231.13177173 202.26766387 223.37615686 202.28685757 215.62051809 202.30378041 C213.4300908 202.30857576 211.23966402 202.31355903 209.04923725 202.31858563 C195.44732319 202.34955456 181.84540486 202.37623998 168.24346542 202.39300442 C165.09313703 202.39695392 161.94280871 202.40095691 158.79248047 202.4050293 C157.61798196 202.40654184 157.61798196 202.40654184 156.4197562 202.40808494 C143.73402098 202.42509399 131.04848075 202.4662064 118.36284074 202.51705229 C105.33931963 202.56882322 92.31589882 202.59794585 79.29227567 202.6052013 C71.97969077 202.60986397 64.66742534 202.62461922 57.35494232 202.6649456 C50.47662455 202.70283173 43.59886048 202.71024592 36.72045326 202.69693947 C34.19487897 202.69699354 31.66928095 202.70733918 29.14379692 202.7286911 C25.69723209 202.75627451 22.25267115 202.74690545 18.80609131 202.72825623 C17.80520816 202.74505115 16.804325 202.76184608 15.77311206 202.77914995 C9.83525932 202.69878413 6.58298518 201.71278116 2.2490046 197.57986599 C-0.64168178 193.92343662 -0.13756991 189.72331255 -0.12025452 185.31221008 C-0.12111053 184.52342972 -0.12196655 183.73464935 -0.12284851 182.92196655 C-0.12450787 180.26216394 -0.11897329 177.60242384 -0.11352539 174.94262695 C-0.11321917 173.00988613 -0.11335236 171.07714519 -0.11389065 169.14440441 C-0.11411683 163.95868435 -0.10831205 158.77298727 -0.10128021 153.58727264 C-0.09559423 148.72496975 -0.09531758 143.86267249 -0.09460449 139.00036621 C-0.08935273 124.77107442 -0.07539164 110.54178692 -0.0625 96.3125 C-0.041875 64.529375 -0.02125 32.74625 0 0 Z M10 12 C9.69088059 15.1538428 9.69088059 15.1538428 9.73930359 18.93992615 C9.73547804 19.66230707 9.73165249 20.38468799 9.72771102 21.12895924 C9.71735023 23.56187585 9.72137893 25.9945578 9.7253418 28.42749023 C9.72099701 30.16674011 9.71581465 31.90598807 9.70985413 33.64523315 C9.69642759 38.37865772 9.69588951 43.11200263 9.69841743 47.84544253 C9.69948468 51.79196796 9.69461007 55.7384771 9.689812 59.68499905 C9.67870414 68.99289253 9.67828657 78.30074567 9.68432617 87.60864258 C9.69036801 97.22214381 9.67805255 106.83549876 9.6567561 116.44897503 C9.63916307 124.69274025 9.63313511 132.93645881 9.63639385 141.18024212 C9.63821055 146.10828917 9.63553213 151.03623189 9.62167931 155.96426201 C9.6091429 160.59765486 9.61100515 165.23081905 9.62409019 169.86420822 C9.62646471 171.56742364 9.62369016 173.27065494 9.61546707 174.97385216 C9.60507134 177.29386692 9.61304157 179.61310416 9.6257782 181.93309021 C9.62561046 183.23298606 9.62544271 184.53288191 9.62526989 185.87216854 C9.72660816 188.92556662 9.72660816 188.92556662 11.25277257 190.67206883 C13.44253827 192.33633879 14.59831895 192.37492547 17.330369 192.37473011 C18.66465233 192.38553992 18.66465233 192.38553992 20.02589089 192.39656812 C21.00408899 192.38919383 21.98228709 192.38181955 22.99012756 192.3742218 C24.02850201 192.37819621 25.06687645 192.38217061 26.13671678 192.38626546 C29.63302982 192.39592722 33.12894214 192.38404674 36.62524414 192.37231445 C39.12487439 192.37474112 41.62450366 192.37845921 44.12413025 192.38337708 C50.21852227 192.3918261 56.31275598 192.38625655 62.40712983 192.37411413 C69.49943135 192.36050854 76.59170455 192.36213069 83.6840158 192.36424746 C96.33502248 192.36743878 108.98597289 192.35576101 121.63696289 192.33618164 C133.92246209 192.31717283 146.20789535 192.31009496 158.4934082 192.31567383 C171.86210375 192.32172659 185.23077027 192.32156411 198.5994634 192.310188 C200.02391938 192.30898066 201.44837536 192.30777468 202.87283134 192.30657005 C203.57374897 192.30596651 204.27466659 192.30536298 204.99682413 192.30474115 C209.94470984 192.30085609 214.89258477 192.30125788 219.84047127 192.3031559 C226.49457611 192.30549502 233.14860786 192.29697631 239.80269814 192.2810955 C242.25133156 192.27683702 244.6999736 192.27601252 247.14860916 192.27878571 C250.47811962 192.28198562 253.80737216 192.27298125 257.13685608 192.26069641 C258.60749932 192.2663654 258.60749932 192.2663654 260.10785252 192.27214891 C260.994767 192.26631671 261.88168147 192.26048452 262.79547215 192.25447559 C263.94928122 192.25317543 263.94928122 192.25317543 265.12639958 192.251849 C267.24441072 192.15999056 267.24441072 192.15999056 269 190 C269.30625567 186.8263225 269.30625567 186.8263225 269.25396729 183.01538086 C269.25708727 182.28821082 269.26020725 181.56104078 269.26342177 180.81183529 C269.27143163 178.36275689 269.26506662 175.91392422 269.25878906 173.46484375 C269.2614976 171.71412002 269.26505776 169.96339742 269.26940918 168.212677 C269.27855177 163.44832203 269.27498125 158.68405336 269.26865101 153.91969681 C269.26360067 148.94247448 269.26827976 143.96525972 269.27142334 138.98803711 C269.27506581 130.62840442 269.27025653 122.26880702 269.26074219 113.90917969 C269.2498571 104.23320277 269.25338248 94.55731013 269.264395 84.88133526 C269.27345988 76.58578359 269.27475707 68.29025735 269.26951766 59.99470234 C269.26639355 55.03485545 269.26600066 50.07504822 269.27259064 45.11520386 C269.27835188 40.45312413 269.27438971 35.79115344 269.26280212 31.12908554 C269.26014897 29.4141648 269.26093172 27.69923494 269.26532745 25.98431778 C269.27075867 23.65095938 269.26397865 21.31795474 269.25396729 18.98461914 C269.25321323 17.67642715 269.25245918 16.36823517 269.25168228 15.020401 C269.31804606 11.88741492 269.31804606 11.88741492 267 10 C265.0482604 9.69787655 265.0482604 9.69787655 262.77706146 9.74831772 C261.88604689 9.74310222 260.99503232 9.73788673 260.07701731 9.73251319 C259.09201541 9.73697463 258.10701352 9.74143608 257.09216309 9.74603271 C256.05055952 9.74291273 255.00895595 9.73979275 253.93578863 9.73657823 C250.42263076 9.72855914 246.90964374 9.73493708 243.39648438 9.74121094 C240.88715005 9.73850281 238.37781651 9.73494289 235.8684845 9.73059082 C229.74658759 9.72239465 223.62475465 9.72362633 217.50285685 9.7294161 C212.52913741 9.73392595 207.55543171 9.73454844 202.58171082 9.73236847 C201.87484212 9.732062 201.16797343 9.73175554 200.43968448 9.73143978 C199.00386401 9.73080036 197.56804354 9.73015193 196.13222307 9.7294946 C182.65657747 9.72378635 169.18095905 9.73035695 155.70531791 9.74109533 C144.13312151 9.7500313 132.56096522 9.74847939 120.98876953 9.73925781 C107.56258626 9.7285639 94.13642682 9.72433572 80.71023989 9.73048234 C79.27958966 9.73111946 77.84893942 9.7317482 76.41828918 9.73236847 C75.71431247 9.73267702 75.01033575 9.73298557 74.2850264 9.73330347 C69.31510844 9.73503306 64.34520555 9.73210965 59.37528992 9.72740936 C52.69082841 9.72122674 46.00645465 9.72560466 39.32199669 9.73719788 C36.86207392 9.73985268 34.40214479 9.73906551 31.9422245 9.73467255 C28.59734083 9.7292479 25.25270461 9.73601362 21.90783691 9.74603271 C20.43033407 9.73934055 20.43033407 9.73934055 18.92298269 9.73251319 C18.03196812 9.73772868 17.14095355 9.74294418 16.22293854 9.74831772 C15.45015265 9.74864242 14.67736676 9.74896713 13.88116312 9.74930167 C11.75638391 9.83861521 11.75638391 9.83861521 10 12 Z " fill="#836AEF" transform="translate(116,182)"/>
<path d="M0 0 C0.89101457 -0.00521549 1.78202914 -0.01043099 2.70004416 -0.01580453 C4.17754699 -0.00911236 4.17754699 -0.00911236 5.68489838 -0.002285 C6.72650195 -0.00540498 7.76810552 -0.00852497 8.84127283 -0.01173949 C12.35443071 -0.01975858 15.86741772 -0.01338064 19.38057709 -0.00710678 C21.88991142 -0.00981491 24.39924495 -0.01337483 26.90857697 -0.0177269 C33.03047387 -0.02592307 39.15230682 -0.02469139 45.27420461 -0.01890162 C50.24792406 -0.01439177 55.22162975 -0.01376928 60.19535065 -0.01594925 C60.90221934 -0.01625572 61.60908803 -0.01656218 62.33737698 -0.01687793 C63.77319746 -0.01751736 65.20901793 -0.01816579 66.64483839 -0.01882312 C80.12048399 -0.02453137 93.59610241 -0.01796077 107.07174355 -0.00722238 C118.64393996 0.00171358 130.21609625 0.00016168 141.78829193 -0.00905991 C155.2144752 -0.01975381 168.64063464 -0.023982 182.06682158 -0.01783538 C183.49747181 -0.01719825 184.92812204 -0.01656951 186.35877228 -0.01594925 C187.062749 -0.0156407 187.76672571 -0.01533215 188.49203506 -0.01501425 C193.46195303 -0.01328466 198.43185592 -0.01620807 203.40177155 -0.02090836 C210.08623305 -0.02709098 216.77060681 -0.02271306 223.45506477 -0.01111984 C225.91498755 -0.00846504 228.37491668 -0.00925221 230.83483696 -0.01364517 C234.17972063 -0.01906982 237.52435686 -0.0123041 240.86922455 -0.002285 C241.85422644 -0.00674645 242.83922833 -0.01120789 243.85407877 -0.01580453 C244.74509334 -0.01058903 245.63610791 -0.00537354 246.55412292 0 C247.32690881 0.0003247 248.0996947 0.00064941 248.89589834 0.00098395 C250.77706146 0.25168228 250.77706146 0.25168228 252.77706146 2.25168228 C253.02874374 5.27208328 253.02874374 5.27208328 253.03102875 9.23630142 C253.03414873 9.96347146 253.03726871 10.6906415 253.04048324 11.43984699 C253.0484931 13.88892539 253.04212809 16.33775806 253.03585052 18.78683853 C253.03855907 20.53756226 253.04211922 22.28828486 253.04647064 24.03900528 C253.05561323 28.80336026 253.05204271 33.56762893 253.04571247 38.33198547 C253.04066213 43.30920781 253.04534122 48.28642256 253.0484848 53.26364517 C253.05212727 61.62327786 253.04731799 69.98287526 253.03780365 78.34250259 C253.02691856 88.01847951 253.03044394 97.69437215 253.04145646 107.37034702 C253.05052135 115.66589869 253.05181853 123.96142493 253.04657912 132.25697994 C253.04345502 137.21682683 253.04306212 142.17663406 253.0496521 147.13647842 C253.05541334 151.79855816 253.05145117 156.46052884 253.03986359 161.12259674 C253.03721044 162.83751748 253.03799319 164.55244734 253.04238892 166.2673645 C253.04782013 168.6007229 253.04104011 170.93372754 253.03102875 173.26706314 C253.02989767 175.22935112 253.02989767 175.22935112 253.02874374 177.23128128 C252.77706146 180.25168228 252.77706146 180.25168228 250.77706146 182.25168228 C248.90346104 182.50353128 248.90346104 182.50353128 246.57253361 182.50615788 C245.68561913 182.51199007 244.79870465 182.51782226 243.88491398 182.52383119 C242.41427074 182.5181622 242.41427074 182.5181622 240.91391754 182.51237869 C239.87710309 182.51620424 238.84028864 182.52002979 237.77205557 182.52397126 C234.27505706 182.53434411 230.77822143 182.53030099 227.28121185 182.52634048 C224.78335161 182.53068458 222.28549271 182.53586671 219.7876358 182.54182816 C213.69347879 182.55386466 207.59938654 182.55636563 201.50522358 182.55402789 C196.55344165 182.55224743 191.60167313 182.55398851 186.64989281 182.55825233 C185.9460882 182.55884752 185.24228359 182.55944271 184.51715158 182.56005594 C183.08753383 182.56126764 181.6579161 182.56248178 180.22829836 182.56369831 C166.81032916 182.57458386 153.39238508 182.57240659 139.97441446 182.56631347 C127.69013639 182.56114355 115.40593759 182.57239989 103.1216752 182.59141169 C90.51856157 182.61076794 77.91548549 182.61904998 65.31235689 182.61528844 C58.23250657 182.613373 51.15272374 182.61589712 44.07288551 182.63000298 C37.41713707 182.64312925 30.76152156 182.64068688 24.10576439 182.62759209 C21.65754773 182.62521534 19.20932005 182.62799995 16.76111603 182.63621521 C13.42961911 182.64659164 10.09866569 182.6386554 6.76718903 182.62590408 C5.78899092 182.63327837 4.81079282 182.64065265 3.80295235 182.6482504 C2.91343013 182.64104386 2.0239079 182.63383731 1.10743046 182.62641239 C0.33806205 182.62646741 -0.43130635 182.62652242 -1.22398895 182.62657911 C-3.78768781 182.1457653 -4.67229634 181.32131611 -6.22293854 179.25168228 C-6.59766865 176.12385082 -6.59766865 176.12385082 -6.59716034 172.18477249 C-6.60312195 171.09886113 -6.60312195 171.09886113 -6.60920399 169.99101216 C-6.61884904 167.55874243 -6.60699599 165.12705117 -6.59525299 162.69479752 C-6.59768021 160.95377764 -6.60139885 159.21275916 -6.60631561 157.47174454 C-6.6157371 152.73839364 -6.60628902 148.00524906 -6.59298348 143.27191424 C-6.58168678 138.32539629 -6.58577507 133.37888875 -6.58773041 128.4323616 C-6.58861387 120.12576288 -6.57752149 111.81924568 -6.55912018 103.51266861 C-6.53794481 93.89858205 -6.53444384 84.28461491 -6.54068214 74.67050976 C-6.54636939 65.43393588 -6.54073813 56.1974042 -6.52950859 46.96083641 C-6.52485484 43.02425801 -6.52399209 39.08770536 -6.52609444 35.15112495 C-6.52797295 30.51939095 -6.51990725 25.88777914 -6.50403404 21.256073 C-6.49977824 19.55244261 -6.49894929 17.84879984 -6.50172424 16.1451664 C-6.50492807 13.82717798 -6.49591023 11.50955885 -6.48363495 9.19160843 C-6.48158208 7.89208961 -6.47952921 6.59257078 -6.47741413 5.2536726 C-6.07661387 0.52552363 -4.32418531 0.00181691 0 0 Z M0.77706146 7.25168228 C0.77706146 62.69168228 0.77706146 118.13168228 0.77706146 175.25168228 C81.95706146 175.25168228 163.13706146 175.25168228 246.77706146 175.25168228 C246.77706146 119.81168228 246.77706146 64.37168228 246.77706146 7.25168228 C165.59706146 7.25168228 84.41706146 7.25168228 0.77706146 7.25168228 Z " fill="#F8F6FD" transform="translate(132.22293853759766,191.74831771850586)"/>
<path d="M0 0 C0.81730591 -0.00623996 1.63461182 -0.01247993 2.47668457 -0.01890898 C5.21912364 -0.03488145 7.96067912 -0.02221833 10.703125 -0.00964355 C12.66764851 -0.01506279 14.63216796 -0.02218433 16.59667969 -0.03088379 C21.93548516 -0.04914366 27.27398199 -0.04203856 32.61279297 -0.02936745 C38.19499556 -0.01925361 43.77717139 -0.02862863 49.359375 -0.03491211 C58.73442336 -0.04219322 68.10934576 -0.03258861 77.484375 -0.0135498 C88.32944839 0.00821976 99.17422101 0.00116873 110.01928711 -0.02085543 C119.32383808 -0.03899618 128.6282984 -0.04157422 137.93286133 -0.03110075 C143.49305147 -0.02485855 149.05310015 -0.02405019 154.61328125 -0.0372467 C159.84019072 -0.04878526 165.06671169 -0.04081586 170.2935791 -0.01766968 C172.21406407 -0.01237193 174.13458162 -0.01391451 176.05505371 -0.02272034 C178.67256338 -0.03361744 181.2888206 -0.01998354 183.90625 0 C184.67005981 -0.00892289 185.43386963 -0.01784577 186.2208252 -0.02703905 C189.66713205 0.02415661 191.61301706 0.25795269 194.42430878 2.32427311 C196.62716035 5.47068273 196.51256466 8.4304442 196.47070312 12.13464355 C196.4777124 12.89772827 196.48472168 13.66081299 196.49194336 14.44702148 C196.5095305 16.96639535 196.49789762 19.48464327 196.484375 22.00402832 C196.48707 23.75753495 196.4909525 25.51104011 196.49597168 27.26454163 C196.50186791 30.93899773 196.49330097 34.61306474 196.47460938 38.28747559 C196.45183636 42.99315389 196.46493131 47.69791881 196.48889923 52.4035635 C196.50336831 56.02475336 196.49874588 59.64572747 196.48838806 63.2669239 C196.48572296 65.00163952 196.48898293 66.73637482 196.49830627 68.47106743 C196.50848857 70.89851451 196.49294824 73.32449309 196.47070312 75.75183105 C196.47880005 76.46627884 196.48689697 77.18072662 196.49523926 77.91682434 C196.43988813 81.1841716 196.04911788 83.33940368 194.42430878 86.1920166 C191.08001053 89.32619079 188.26391623 89.20364852 183.90625 89.13612366 C183.08894409 89.14321804 182.27163818 89.15031243 181.42956543 89.1576218 C178.68694231 89.17524438 175.94572843 89.15707593 173.203125 89.13903809 C171.23860019 89.14417529 169.27407999 89.15145505 167.30957031 89.16072083 C161.97069301 89.17926836 156.63231374 89.16627498 151.29345703 89.14663053 C145.71125691 89.13027045 140.12908898 89.13905324 134.546875 89.14414978 C125.17179387 89.14867369 115.79691206 89.1327824 106.421875 89.1048584 C95.57679296 89.07280524 84.73207047 89.07282132 73.88696289 89.09007317 C63.46235639 89.10592656 53.03788196 89.09921232 42.61328125 89.08213615 C38.17314141 89.07525626 33.73310713 89.07630774 29.29296875 89.08368111 C24.06604277 89.0913316 18.8395269 89.07925809 13.6126709 89.0518322 C11.69219175 89.04493432 9.7716744 89.04486536 7.85119629 89.05204773 C5.23367026 89.06071033 2.61741919 89.0448413 0 89.02259827 C-0.76380981 89.03083903 -1.52761963 89.0390798 -2.3145752 89.04757029 C-5.75834439 88.99338778 -7.70773667 88.75687815 -10.51805878 86.69396877 C-12.7374193 83.52053437 -12.60602348 80.50806646 -12.56445312 76.77355957 C-12.5714624 75.99911499 -12.57847168 75.22467041 -12.58569336 74.42675781 C-12.60327999 71.87011725 -12.59164889 69.31458613 -12.578125 66.75793457 C-12.58081974 64.9796121 -12.58470201 63.20129106 -12.58972168 61.42297363 C-12.59561761 57.69724489 -12.58705087 53.97189993 -12.56835938 50.24621582 C-12.54556959 45.4709417 -12.55869219 40.69656681 -12.58264923 35.92132568 C-12.59710475 32.24956489 -12.59250239 28.57801722 -12.58213806 24.90625 C-12.57947008 23.14558811 -12.58274304 21.38490686 -12.59205627 19.62426758 C-12.60221808 17.1630937 -12.58672753 14.70337507 -12.56445312 12.24230957 C-12.57255005 11.51491577 -12.58064697 10.78752197 -12.58898926 10.03808594 C-12.53675355 6.92203924 -12.3230678 4.90293499 -10.51805878 2.3214798 C-7.10837772 -0.18080711 -4.06967447 -0.04754226 0 0 Z M-5.046875 7.50793457 C-5.046875 31.92793457 -5.046875 56.34793457 -5.046875 81.50793457 C58.973125 81.50793457 122.993125 81.50793457 188.953125 81.50793457 C188.953125 57.08793457 188.953125 32.66793457 188.953125 7.50793457 C124.933125 7.50793457 60.913125 7.50793457 -5.046875 7.50793457 Z " fill="#F9F8FD" transform="translate(164.046875,214.4920654296875)"/>
<path d="M0 0 C0.90807404 -0.00700928 1.81614807 -0.01401855 2.7517395 -0.02124023 C5.74235955 -0.03879219 8.73202719 -0.02720729 11.72265625 -0.01367188 C13.80721213 -0.01636759 15.89176678 -0.02025067 17.97631836 -0.02526855 C22.34077958 -0.03115982 26.70491289 -0.02261243 31.06933594 -0.00390625 C36.65815839 0.01888285 42.24621244 0.00575781 47.83500671 -0.01819611 C52.13820159 -0.03266399 56.44121488 -0.0280435 60.74441528 -0.01768494 C62.80486136 -0.0150204 64.86532403 -0.01827778 66.92575073 -0.02760315 C69.80771426 -0.03778485 72.68844088 -0.0222447 75.5703125 0 C76.418284 -0.00809692 77.26625549 -0.01619385 78.1399231 -0.02453613 C83.49370654 0.05185392 86.53322619 0.97484111 90.78515625 4.51757812 C93.53890248 7.77859339 94.68002968 9.78169211 95.28515625 14.01757812 C94.57182496 19.01089718 92.48720665 21.97509495 88.78515625 25.33007812 C84.2353567 28.0315216 79.32907736 27.67165929 74.18041992 27.67871094 C73.31325851 27.68367584 72.44609711 27.68864075 71.55265808 27.6937561 C68.68613895 27.70835148 65.81967517 27.71517537 62.953125 27.72070312 C60.95778909 27.72645674 58.96245319 27.73221445 56.96711731 27.73797607 C52.78333275 27.7484786 48.59956737 27.75432616 44.41577148 27.7578125 C39.06255481 27.76329558 33.70959269 27.7873229 28.3564558 27.81578445 C24.2342709 27.83443517 20.11214701 27.83961773 15.98992348 27.84114838 C14.01681438 27.84416993 12.04370623 27.85218166 10.07063866 27.86533356 C7.30625574 27.88244483 4.54249099 27.8805014 1.77807617 27.87402344 C0.96796082 27.88323822 0.15784546 27.892453 -0.67681885 27.90194702 C-5.92243021 27.86356441 -9.56050045 26.98754243 -14.21484375 24.51757812 C-17.33595811 21.15006 -19.08606138 18.85691479 -19.52734375 14.26757812 C-19.15279771 9.77302569 -18.10764404 7.94326267 -15.21484375 4.51757812 C-10.12503382 0.27671391 -6.33587586 -0.06049862 0 0 Z " fill="#FAF2FD" transform="translate(279.21484375,137.482421875)"/>
<path d="M0 0 C1.27713867 -0.04350586 1.27713867 -0.04350586 2.58007812 -0.08789062 C8.18621751 -0.14425552 11.38123625 0.5503639 15.8125 4.3125 C19.24310377 8.28477805 20.3969452 11.23252859 20.15234375 16.359375 C19.63827513 19.31379238 18.23758175 21.69985013 16.8125 24.3125 C16.44269987 28.20849371 16.44269987 28.20849371 18.3125 30.5625 C20.28074182 34.17094334 20.39162388 37.32906684 19.8125 41.3125 C17.91301469 46.25116182 15.46595703 49.94423487 10.69140625 52.40625 C6.98418435 53.57324523 3.46954902 53.60425076 -0.375 53.5625 C-1.46071289 53.57410156 -1.46071289 53.57410156 -2.56835938 53.5859375 C-7.93402778 53.56597222 -7.93402778 53.56597222 -10.1875 51.3125 C-10.43473816 49.18052673 -10.43473816 49.18052673 -10.43041992 46.51147461 C-10.43349655 45.51381577 -10.43657318 44.51615692 -10.43974304 43.48826599 C-10.43255753 42.40803665 -10.42537201 41.32780731 -10.41796875 40.21484375 C-10.41751053 39.11024307 -10.41705231 38.0056424 -10.4165802 36.86756897 C-10.41355547 34.52978442 -10.40566264 32.19200192 -10.39331055 29.85424805 C-10.37505834 26.26148397 -10.37280078 22.66897746 -10.37304688 19.07617188 C-10.36813174 16.80989359 -10.36230344 14.54361706 -10.35546875 12.27734375 C-10.35435593 11.19509018 -10.3532431 10.11283661 -10.35209656 8.99778748 C-10.34571671 8.00328079 -10.33933685 7.00877411 -10.33276367 5.98413086 C-10.32895187 5.10413925 -10.32514008 4.22414764 -10.32121277 3.31748962 C-9.99427953 -1.58479271 -3.78689541 0.04204547 0 0 Z " fill="#FAF9FD" transform="translate(181.1875,232.6875)"/>
<path d="M0 0 C1.18421456 0.0023229 1.18421456 0.0023229 2.39235264 0.00469273 C3.22484062 0.00242718 4.05732859 0.00016162 4.91504347 -0.00217259 C7.72646847 -0.00854238 10.53784563 -0.00768133 13.34927708 -0.00685817 C15.35600685 -0.0098478 17.36273603 -0.01324987 19.36946446 -0.01703578 C24.83631039 -0.02589979 30.3031407 -0.0282149 35.76999313 -0.02885157 C40.32546317 -0.02979862 44.88092952 -0.03347455 49.43639815 -0.03702366 C60.17916957 -0.04517729 70.92193261 -0.04760707 81.66470677 -0.04689723 C92.76585974 -0.04629615 103.86696416 -0.05685205 114.96810484 -0.0726409 C124.48230489 -0.0856931 133.99648902 -0.09108211 143.51069796 -0.09044182 C149.20050409 -0.09018616 154.8902671 -0.09307493 160.58006436 -0.10361987 C165.92910717 -0.11326197 171.27806531 -0.11340693 176.62711102 -0.10610324 C178.5952055 -0.10505254 180.56330515 -0.10744877 182.53139073 -0.1134637 C185.20853475 -0.12111847 187.88538157 -0.11658248 190.56251866 -0.10883266 C191.34976431 -0.11397622 192.13700996 -0.11911978 192.94811153 -0.12441921 C198.31265626 -0.08986571 198.31265626 -0.08986571 200.54092747 2.1384055 C200.00521318 5.67411979 200.00521318 5.67411979 198.54092747 7.1384055 C195.91527557 7.24064828 193.31577733 7.27726986 190.6895023 7.27211827 C189.44077034 7.27551661 189.44077034 7.27551661 188.16681147 7.27898359 C185.35538647 7.28535339 182.54400931 7.28449233 179.73257786 7.28366917 C177.72584809 7.2866588 175.7191189 7.29006087 173.71239048 7.29384679 C168.24554455 7.30271079 162.77871424 7.3050259 157.31186181 7.30566257 C152.75639177 7.30660963 148.20092542 7.31028555 143.64545679 7.31383467 C132.90268537 7.3219883 122.15992233 7.32441807 111.41714817 7.32370824 C100.3159952 7.32310715 89.21489078 7.33366305 78.1137501 7.3494519 C68.59955005 7.3625041 59.08536592 7.36789311 49.57115698 7.36725283 C43.88135085 7.36699716 38.19158784 7.36988593 32.50179058 7.38043088 C27.15274777 7.39007297 21.80378963 7.39021793 16.45474392 7.38291425 C14.48664944 7.38186355 12.51854979 7.38425978 10.55046421 7.3902747 C7.87332018 7.39792947 5.19647337 7.39339348 2.51933628 7.38564366 C1.73209063 7.39078722 0.94484498 7.39593079 0.13374341 7.40123022 C-5.23080132 7.36667671 -5.23080132 7.36667671 -7.45907253 5.1384055 C-6.65727162 -0.1534805 -5.10827424 0.0231544 0 0 Z " fill="#F5F5FC" transform="translate(159.45907253026962,319.8615944981575)"/>
<path d="M0 0 C1.18421456 0.0023229 1.18421456 0.0023229 2.39235264 0.00469273 C3.22484062 0.00242718 4.05732859 0.00016162 4.91504347 -0.00217259 C7.72646847 -0.00854238 10.53784563 -0.00768133 13.34927708 -0.00685817 C15.35600685 -0.0098478 17.36273603 -0.01324987 19.36946446 -0.01703578 C24.83631039 -0.02589979 30.3031407 -0.0282149 35.76999313 -0.02885157 C40.32546317 -0.02979862 44.88092952 -0.03347455 49.43639815 -0.03702366 C60.17916957 -0.04517729 70.92193261 -0.04760707 81.66470677 -0.04689723 C92.76585974 -0.04629615 103.86696416 -0.05685205 114.96810484 -0.0726409 C124.48230489 -0.0856931 133.99648902 -0.09108211 143.51069796 -0.09044182 C149.20050409 -0.09018616 154.8902671 -0.09307493 160.58006436 -0.10361987 C165.92910717 -0.11326197 171.27806531 -0.11340693 176.62711102 -0.10610324 C178.5952055 -0.10505254 180.56330515 -0.10744877 182.53139073 -0.1134637 C185.20853475 -0.12111847 187.88538157 -0.11658248 190.56251866 -0.10883266 C191.34976431 -0.11397622 192.13700996 -0.11911978 192.94811153 -0.12441921 C198.31265626 -0.08986571 198.31265626 -0.08986571 200.54092747 2.1384055 C200.29092747 4.2009055 200.29092747 4.2009055 199.54092747 6.1384055 C196.40283044 7.70745402 193.05229254 7.27893473 189.60721165 7.27211827 C188.7779528 7.27438383 187.94869395 7.27664938 187.09430605 7.27898359 C184.29980655 7.2853425 181.50535531 7.28449303 178.71084934 7.28366917 C176.71382417 7.28665945 174.71679957 7.29006167 172.71977574 7.29384679 C167.28397974 7.30270346 161.84819948 7.30502557 156.41239697 7.30566257 C151.88173002 7.30661016 147.35106678 7.31028665 142.82040125 7.31383467 C132.13658388 7.32198525 121.45277494 7.32441832 110.76895481 7.32370824 C99.72969693 7.32310699 88.69048784 7.33366674 77.65124232 7.3494519 C68.18797709 7.36250382 58.72472786 7.36789314 49.26145369 7.36725283 C43.6029615 7.36699718 37.94451266 7.36988477 32.2860294 7.38043088 C26.96734188 7.39007267 21.64873952 7.39021815 16.3300491 7.38291425 C14.37324166 7.38186356 12.41642903 7.3842597 10.45963055 7.3902747 C7.79786616 7.39792955 5.1364007 7.39339346 2.47464329 7.38564366 C1.69197071 7.39078722 0.90929813 7.39593079 0.10290819 7.40123022 C-5.23080113 7.3666769 -5.23080113 7.3666769 -7.45907253 5.1384055 C-6.65727162 -0.1534805 -5.10827424 0.0231544 0 0 Z " fill="#F4F6FC" transform="translate(159.45907253026962,343.8615944981575)"/>
<path d="M0 0 C1.35164246 -0.00788544 1.35164246 -0.00788544 2.73059082 -0.01593018 C5.7145309 -0.02915288 8.69793909 -0.02038327 11.68188477 -0.01025391 C13.75309858 -0.01227416 15.8243117 -0.0151852 17.89552307 -0.01895142 C22.23917403 -0.023378 26.58264005 -0.01693356 30.92626953 -0.00292969 C36.49620273 0.01415163 42.06570194 0.00432967 47.63561916 -0.01364708 C51.91383639 -0.02448494 56.19195066 -0.02103836 60.47017097 -0.0132637 C62.52389642 -0.01126115 64.57763119 -0.01372288 66.63134575 -0.02070236 C69.50187832 -0.02831558 72.37170736 -0.01671378 75.2421875 0 C76.09271194 -0.00607269 76.94323639 -0.01214539 77.8195343 -0.0184021 C81.3097497 0.01927323 83.59360528 0.07409712 86.71351624 1.72885132 C88.18579102 3.38818359 88.18579102 3.38818359 88.68579102 6.32568359 C88.05649063 10.18014847 87.3293947 11.09258573 84.18579102 13.38818359 C81.12034522 13.78269429 78.41484826 13.93531978 75.34985352 13.90576172 C74.01262238 13.91627563 74.01262238 13.91627563 72.64837646 13.92700195 C69.70219758 13.94460393 66.75697963 13.93295134 63.81079102 13.91943359 C61.76342586 13.92212787 59.71606195 13.92600976 57.66870117 13.93103027 C53.37804989 13.93692831 49.08773171 13.92835239 44.79711914 13.90966797 C39.29547614 13.88687841 33.79461363 13.89999983 28.29299927 13.92395782 C24.06536979 13.93840744 19.83792556 13.93381362 15.61029053 13.92344666 C13.58168445 13.92077706 11.55306158 13.92405727 9.5244751 13.93336487 C6.68977264 13.94351656 3.85633657 13.92804869 1.02172852 13.90576172 C0.18212585 13.91385864 -0.65747681 13.92195557 -1.52252197 13.93029785 C-5.15720141 13.87731832 -7.36020634 13.71920341 -10.33911133 11.54724121 C-12.33291727 8.62896533 -12.32981272 6.8500944 -11.81420898 3.38818359 C-8.66576703 -0.67596355 -4.76622708 -0.03394977 0 0 Z " fill="#B93DF6" transform="translate(278.814208984375,144.61181640625)"/>
<path d="M0 0 C4.43740335 2.30233345 7.66172803 5.87274411 9.76171875 10.3515625 C10.51580681 13.3580574 11.00797804 16.25122119 10.76171875 19.3515625 C10.10171875 20.0115625 9.44171875 20.6715625 8.76171875 21.3515625 C6.73046875 21.24609375 6.73046875 21.24609375 4.76171875 20.3515625 C3.85546875 18.42578125 3.85546875 18.42578125 3.26171875 16.0390625 C2.12754494 12.16191399 1.08909026 9.84709113 -2.23828125 7.3515625 C-5.89116318 6.13393519 -8.39582261 5.96080399 -12.23828125 6.3515625 C-15.2137992 8.12759548 -17.66583313 10.20666627 -19.23828125 13.3515625 C-19.50683237 17.11656787 -19.46988512 20.89055695 -19.48828125 24.6640625 C-19.50890625 25.71013672 -19.52953125 26.75621094 -19.55078125 27.83398438 C-19.5559375 28.84654297 -19.56109375 29.85910156 -19.56640625 30.90234375 C-19.57575195 31.82700439 -19.58509766 32.75166504 -19.59472656 33.7043457 C-19.05925987 37.68110277 -17.2395663 40.31451727 -14.48828125 43.1640625 C-11.23656561 44.88024576 -8.86367963 44.73318338 -5.23828125 44.3515625 C-1.04892954 42.54252426 0.69616969 40.37394751 2.76171875 36.3515625 C1.95734375 36.3721875 1.15296875 36.3928125 0.32421875 36.4140625 C-2.23828125 36.3515625 -2.23828125 36.3515625 -3.23828125 35.3515625 C-3.36328125 32.8515625 -3.36328125 32.8515625 -3.23828125 30.3515625 C-1.49978497 28.61306622 0.84038245 29.17939954 3.19921875 29.1640625 C4.18792969 29.14988281 5.17664063 29.13570313 6.1953125 29.12109375 C8.76171875 29.3515625 8.76171875 29.3515625 10.76171875 31.3515625 C11.54083416 36.12364441 10.6788478 39.03198196 8.19921875 43.0390625 C5.3216169 46.94247613 2.55802425 50.05827298 -2.23828125 51.3515625 C-8.1812762 52.05729315 -13.33243995 52.25432943 -18.80078125 49.6640625 C-23.04901686 45.63368513 -26.86863299 41.62567407 -27.54467773 35.63769531 C-27.61488977 32.29189289 -27.65919604 28.94808856 -27.67578125 25.6015625 C-27.70865234 24.4465625 -27.74152344 23.2915625 -27.77539062 22.1015625 C-27.82075713 14.87591518 -27.1019695 9.8732479 -22.23828125 4.3515625 C-15.85553133 -1.43744324 -8.38270939 -2.42849871 0 0 Z " fill="#F9F7FD" transform="translate(330.23828125,233.6484375)"/>
<path d="M0 0 C3.32978403 2.69216581 6.71431442 5.7396557 7.2746582 10.1730957 C7.30298279 12.88669687 7.32171171 15.5987291 7.3125 18.3125 C7.32861328 19.25029297 7.34472656 20.18808594 7.36132812 21.15429688 C7.36573534 27.40813921 6.70925353 31.97814029 2.375 36.8125 C-1.32140827 38.66070413 -4.87700612 39.22905522 -9 39 C-14.05602692 36.65924679 -16.00861239 34.11826557 -18 29 C-18.44902721 25.49170243 -18.46460202 22.03311771 -18.4375 18.5 C-18.45748047 17.57574219 -18.47746094 16.65148437 -18.49804688 15.69921875 C-18.49382805 9.8012994 -17.86244062 6.5133334 -14 2 C-9.71434 -1.79587029 -5.2717449 -1.58822079 0 0 Z " fill="#8E64F0" transform="translate(276,240)"/>
<path d="M0 0 C3.95478251 2.91900614 7.41112181 6.50974362 9.625 10.9375 C9.89729992 15.34875868 9.85668414 19.76879807 9.875 24.1875 C9.895625 25.41597656 9.91625 26.64445312 9.9375 27.91015625 C9.94523437 29.69486328 9.94523437 29.69486328 9.953125 31.515625 C9.9624707 32.60262695 9.97181641 33.68962891 9.98144531 34.80957031 C9.38293865 40.06167121 7.2007735 43.93396498 3.125 47.25 C2.24328125 47.98669922 2.24328125 47.98669922 1.34375 48.73828125 C-3.48410716 52.10680886 -9.77125625 51.5554033 -15.375 50.9375 C-20.0856412 49.24591709 -23.22686336 46.64452099 -25.8125 42.375 C-30.11392636 32.91186201 -30.33633055 19.26979578 -27.28125 9.40625 C-24.92243136 5.24067666 -21.89535578 1.55564047 -17.49609375 -0.51171875 C-11.66845001 -2.02497431 -5.71091426 -1.79788041 0 0 Z M-20.02734375 10.9296875 C-22.02381496 15.38557977 -21.81003205 19.54909028 -21.75 24.375 C-21.76160156 25.30376953 -21.77320313 26.23253906 -21.78515625 27.18945312 C-21.7624119 32.51542083 -21.38920852 36.35877373 -18.375 40.9375 C-15.7241732 43.39898203 -13.83116372 44.83220421 -10.16015625 45.09765625 C-5.1627944 44.75673805 -1.85848311 43.73766339 1.625 39.9375 C4.32756285 35.07670675 3.99252345 29.90928172 4 24.5 C4.02449219 23.57123047 4.04898438 22.64246094 4.07421875 21.68554688 C4.09880209 15.92894849 3.57759761 12.44145634 -0.375 7.9375 C-7.87016809 3.0493469 -14.24373449 3.95654158 -20.02734375 10.9296875 Z " fill="#FBFAFD" transform="translate(279.375,234.0625)"/>
<path d="M0 0 C3.60399579 3.04337422 6.56495473 5.61734567 7.0078125 10.55078125 C6.67740298 16.33294777 4.9754409 19.41029438 0.8125 23.375 C-3.52633354 24.82127785 -7.65313287 24.90376805 -12.1875 24.375 C-15.84804254 22.23968352 -17.57951638 20.23137631 -19.1875 16.375 C-19.8234083 12.31857439 -20.11704126 8.18964231 -18.20703125 4.4609375 C-13.25581211 -1.7242778 -7.31488386 -3.72915648 0 0 Z " fill="#FCF6FD" transform="translate(231.1875,139.625)"/>
<path d="M0 0 C3.29110633 2.10070617 4.8333853 3.75007795 7 7 C7.73981114 11.99802641 7.51803233 15.96393533 5.25 20.5 C2.5585655 23.49048278 0.61281165 24.74716649 -3.3671875 25.37109375 C-7.7346323 25.4867426 -10.98636013 25.56264275 -14.5 22.75 C-17.80640712 19.11295217 -18.83222901 17.50993888 -19.375 12.625 C-18.79603714 7.02835898 -16.39892102 4.26878884 -12.3125 0.5625 C-7.89025594 -1.52346418 -4.65242153 -1.35624096 0 0 Z " fill="#FCF6FD" transform="translate(157,139)"/>
<path d="M0 0 C4.26968436 2.30562955 7.47787961 4.82880089 10 9 C10.66347937 14.2130522 9.83755525 17.59689703 7 22 C4.70813824 24.63911354 3.1137483 25.83669918 -0.37109375 26.34765625 C-5.28112658 26.51545826 -9.21521134 26.44071697 -13 23 C-16.03669041 18.49732111 -16.94181834 14.30169648 -16 9 C-12.71063295 2.29475178 -7.55573777 -1.10187843 0 0 Z " fill="#FCF6FD" transform="translate(191,138)"/>
<path d="M0 0 C1.65 0.33 3.3 0.66 5 1 C5 15.85 5 30.7 5 46 C12.26 46 19.52 46 27 46 C28 47 28 47 28.0625 49.5625 C28.041875 50.366875 28.02125 51.17125 28 52 C23.76620814 54.11689593 18.15160218 53.18493005 13.5 53.1875 C12.33339844 53.19974609 11.16679687 53.21199219 9.96484375 53.22460938 C8.29615234 53.22750977 8.29615234 53.22750977 6.59375 53.23046875 C5.56958984 53.23457764 4.54542969 53.23868652 3.49023438 53.24291992 C1 53 1 53 -1 51 C-1.24723816 48.86802673 -1.24723816 48.86802673 -1.24291992 46.19897461 C-1.24599655 45.20131577 -1.24907318 44.20365692 -1.25224304 43.17576599 C-1.24505753 42.09553665 -1.23787201 41.01530731 -1.23046875 39.90234375 C-1.23001053 38.79774307 -1.22955231 37.6931424 -1.2290802 36.55506897 C-1.22605547 34.21728442 -1.21816264 31.87950192 -1.20581055 29.54174805 C-1.18755834 25.94898397 -1.18530078 22.35647746 -1.18554688 18.76367188 C-1.18063174 16.49739359 -1.17480344 14.23111706 -1.16796875 11.96484375 C-1.16685593 10.88259018 -1.1657431 9.80033661 -1.16459656 8.68528748 C-1.15821671 7.69078079 -1.15183685 6.69627411 -1.14526367 5.67163086 C-1.14145187 4.79163925 -1.13764008 3.91164764 -1.13371277 3.00498962 C-1 1 -1 1 0 0 Z " fill="#FCFBFD" transform="translate(216,233)"/>
<path d="M0 0 C10.9030837 -0.43612335 10.9030837 -0.43612335 15 3 C16.56935594 6.13871188 16.35201103 8.53855822 16 12 C14.1875 14.9375 14.1875 14.9375 11 17 C7.22852276 17.41316745 3.81489198 17.22981277 0 17 C0 11.39 0 5.78 0 0 Z " fill="#8B69F0" transform="translate(178,262)"/>
<path d="M0 0 C10.06312625 -0.60621242 10.06312625 -0.60621242 14.1875 2.0625 C16.46334187 5.75093338 16.69758716 7.73696737 16 12 C14.13291495 14.36497439 12.67938569 15.66030715 10 17 C8.29297265 17.06996014 6.58331997 17.08440154 4.875 17.0625 C3.26625 17.041875 1.6575 17.02125 0 17 C0 11.39 0 5.78 0 0 Z " fill="#9461F1" transform="translate(178,239)"/>
<path d="M0 0 C3.4375 0.8125 3.4375 0.8125 5.4375 3.8125 C5.25 7.375 5.25 7.375 4.4375 10.8125 C1.18923326 12.97801116 0.20655843 13.36406953 -3.5625 12.8125 C-5.9375 11.25 -5.9375 11.25 -7.5625 8.8125 C-7.5 5.1875 -7.5 5.1875 -6.5625 1.8125 C-3.5625 -0.1875 -3.5625 -0.1875 0 0 Z " fill="#BB43F6" transform="translate(225.5625,145.1875)"/>
<path d="M0 0 C2.7912125 1.98322993 3.82597224 3.12986121 4.5 6.5 C4 9 4 9 2.4375 11.375 C0 13 0 13 -3.625 12.9375 C-7 12 -7 12 -9 9 C-9.32502803 5.87973093 -9.51151479 3.85252465 -7.875 1.125 C-5.07553259 -0.55468045 -3.20195936 -0.45742277 0 0 Z " fill="#BC44F6" transform="translate(154,145)"/>
<path d="M0 0 C2 2 2 2 2.375 5.4375 C2 9 2 9 0.3125 10.9375 C-2.41818887 12.19214083 -4.02932151 12.45702746 -7 12 C-8.8125 10.9375 -8.8125 10.9375 -10 9 C-10.36841966 5.56141649 -10.58367385 3.09868019 -8.9375 0 C-5.80557344 -1.61647822 -3.32814714 -0.78665296 0 0 Z " fill="#BA40F6" transform="translate(192,146)"/>
</svg>
